<svg width="80" height="80" viewBox="0 0 80 80" fill="none" xmlns="http://www.w3.org/2000/svg">
<rect x="8.17773" y="64.7422" width="10" height="10" rx="5.00001" transform="rotate(-45 8.17773 64.7422)" fill="#66C68F"/>
<rect x="34.9902" y="80" width="10" height="10" rx="5.00001" transform="rotate(-90 34.9902 80)" fill="#66C68F"/>
<rect opacity="0.05" x="64.7578" y="71.8135" width="10" height="10" rx="5.00001" transform="rotate(-135 64.7578 71.8135)" fill="#66C68F"/>
<rect opacity="0.2" x="80" y="45" width="10" height="10" rx="5.00001" transform="rotate(-180 80 45)" fill="#66C68F"/>
<rect opacity="0.5" x="71.8125" y="15.2449" width="10" height="10" rx="5.00001" transform="rotate(135 71.8125 15.2449)" fill="#66C68F"/>
<rect opacity="0.7" x="44.9902" width="10" height="10" rx="5.00001" transform="rotate(90 44.9902 0)" fill="#66C68F"/>
<rect x="15.2598" y="8.17334" width="10" height="10" rx="5.00001" transform="rotate(45 15.2598 8.17334)" fill="#66C68F"/>
<rect y="35" width="10" height="10" rx="5.00001" fill="#66C68F"/>
</svg>
